ISO-10303-21;
HEADER;
/* Generated by software containing ST-Developer
 * from STEP Tools, Inc. (www.steptools.com) 
 */
/* OPTION: using custom renumber hook */

FILE_DESCRIPTION(
/* description */ ('STEP AP242 Edition 2',
'CAx-IF Rec.Pracs.---Representation and Presentation of Product Manufa
cturing Information (PMI)---4.0---2014-10-13',
'CAx-IF Rec.Pracs.---3D Tessellated Geometry---0.4---2014-09-14','2;1',
'CAx-IF Rec.Pracs.---User Defined Attributes---1.5---2016-08-15'),
/* implementation_level */ '2;1');

FILE_NAME(
/* name */ 'Part Studio 1 Copy 1',
/* time_stamp */ '2026-08-02T18:39:22Z',
/* author */ (''),
/* organization */ (''),
/* preprocessor_version */ 'ST-DEVELOPER v20',
/* originating_system */ 'ONSHAPE BY PTC INC, 1.218',
/* authorisation */ '  ');

FILE_SCHEMA (('AP242_MANAGED_MODEL_BASED_3D_ENGINEERING_MIM_LF { 1 0 10303 442 3 1 4 }'));
ENDSEC;

DATA;
#10=SHAPE_REPRESENTATION_RELATIONSHIP('','',#651,#11);
#11=ADVANCED_BREP_SHAPE_REPRESENTATION('',(#649),#1061);
#12=CYLINDRICAL_SURFACE('',#693,0.001);
#13=CYLINDRICAL_SURFACE('',#694,0.001);
#14=CYLINDRICAL_SURFACE('',#695,0.001);
#15=CYLINDRICAL_SURFACE('',#696,0.001);
#16=CYLINDRICAL_SURFACE('',#697,0.00724264);
#17=CYLINDRICAL_SURFACE('',#698,0.00724264);
#18=CYLINDRICAL_SURFACE('',#699,0.00724264);
#19=CYLINDRICAL_SURFACE('',#700,0.00724264);
#20=CYLINDRICAL_SURFACE('',#703,0.00265563491861039);
#21=CYLINDRICAL_SURFACE('',#705,0.0026556349186104);
#22=CIRCLE('',#659,0.0026556349186104);
#23=CIRCLE('',#660,0.00265563491861039);
#24=CIRCLE('',#665,0.00724264);
#25=CIRCLE('',#666,0.00724264);
#26=CIRCLE('',#667,0.00724264);
#27=CIRCLE('',#668,0.00724264);
#28=CIRCLE('',#670,0.0026556349186104);
#29=CIRCLE('',#671,0.00265563491861039);
#30=CIRCLE('',#678,0.001);
#31=CIRCLE('',#679,0.001);
#32=CIRCLE('',#685,0.001);
#33=CIRCLE('',#686,0.001);
#34=ELLIPSE('',#654,0.00725609822453409,0.00724264);
#35=ELLIPSE('',#655,0.00725609822453409,0.00724264);
#36=ELLIPSE('',#656,0.00725609822453409,0.00724264);
#37=ELLIPSE('',#657,0.00725609822453409,0.00724264);
#38=ELLIPSE('',#663,0.00100185819321878,0.001);
#39=ELLIPSE('',#664,0.00100185819321878,0.001);
#40=ELLIPSE('',#691,0.00100185819321878,0.001);
#41=ELLIPSE('',#692,0.00100185819321878,0.001);
#42=ORIENTED_EDGE('',*,*,#214,.F.);
#43=ORIENTED_EDGE('',*,*,#215,.T.);
#44=ORIENTED_EDGE('',*,*,#216,.F.);
#45=ORIENTED_EDGE('',*,*,#217,.F.);
#46=ORIENTED_EDGE('',*,*,#218,.T.);
#47=ORIENTED_EDGE('',*,*,#219,.T.);
#48=ORIENTED_EDGE('',*,*,#220,.T.);
#49=ORIENTED_EDGE('',*,*,#221,.T.);
#50=ORIENTED_EDGE('',*,*,#222,.T.);
#51=ORIENTED_EDGE('',*,*,#223,.T.);
#52=ORIENTED_EDGE('',*,*,#224,.T.);
#53=ORIENTED_EDGE('',*,*,#225,.T.);
#54=ORIENTED_EDGE('',*,*,#226,.T.);
#55=ORIENTED_EDGE('',*,*,#227,.T.);
#56=ORIENTED_EDGE('',*,*,#228,.T.);
#57=ORIENTED_EDGE('',*,*,#229,.T.);
#58=ORIENTED_EDGE('',*,*,#215,.F.);
#59=ORIENTED_EDGE('',*,*,#230,.T.);
#60=ORIENTED_EDGE('',*,*,#231,.F.);
#61=ORIENTED_EDGE('',*,*,#232,.T.);
#62=ORIENTED_EDGE('',*,*,#233,.F.);
#63=ORIENTED_EDGE('',*,*,#234,.F.);
#64=ORIENTED_EDGE('',*,*,#219,.F.);
#65=ORIENTED_EDGE('',*,*,#235,.T.);
#66=ORIENTED_EDGE('',*,*,#236,.F.);
#67=ORIENTED_EDGE('',*,*,#237,.F.);
#68=ORIENTED_EDGE('',*,*,#238,.T.);
#69=ORIENTED_EDGE('',*,*,#239,.T.);
#70=ORIENTED_EDGE('',*,*,#223,.F.);
#71=ORIENTED_EDGE('',*,*,#240,.T.);
#72=ORIENTED_EDGE('',*,*,#241,.F.);
#73=ORIENTED_EDGE('',*,*,#242,.F.);
#74=ORIENTED_EDGE('',*,*,#243,.T.);
#75=ORIENTED_EDGE('',*,*,#244,.T.);
#76=ORIENTED_EDGE('',*,*,#238,.F.);
#77=ORIENTED_EDGE('',*,*,#245,.T.);
#78=ORIENTED_EDGE('',*,*,#246,.F.);
#79=ORIENTED_EDGE('',*,*,#247,.T.);
#80=ORIENTED_EDGE('',*,*,#248,.T.);
#81=ORIENTED_EDGE('',*,*,#249,.T.);
#82=ORIENTED_EDGE('',*,*,#250,.F.);
#83=ORIENTED_EDGE('',*,*,#251,.T.);
#84=ORIENTED_EDGE('',*,*,#229,.F.);
#85=ORIENTED_EDGE('',*,*,#252,.T.);
#86=ORIENTED_EDGE('',*,*,#246,.T.);
#87=ORIENTED_EDGE('',*,*,#253,.T.);
#88=ORIENTED_EDGE('',*,*,#221,.F.);
#89=ORIENTED_EDGE('',*,*,#254,.F.);
#90=ORIENTED_EDGE('',*,*,#255,.F.);
#91=ORIENTED_EDGE('',*,*,#256,.T.);
#92=ORIENTED_EDGE('',*,*,#225,.F.);
#93=ORIENTED_EDGE('',*,*,#257,.T.);
#94=ORIENTED_EDGE('',*,*,#243,.F.);
#95=ORIENTED_EDGE('',*,*,#258,.T.);
#96=ORIENTED_EDGE('',*,*,#248,.F.);
#97=ORIENTED_EDGE('',*,*,#259,.T.);
#98=ORIENTED_EDGE('',*,*,#227,.F.);
#99=ORIENTED_EDGE('',*,*,#260,.T.);
#100=ORIENTED_EDGE('',*,*,#261,.T.);
#101=ORIENTED_EDGE('',*,*,#262,.T.);
#102=ORIENTED_EDGE('',*,*,#263,.F.);
#103=ORIENTED_EDGE('',*,*,#217,.T.);
#104=ORIENTED_EDGE('',*,*,#264,.F.);
#105=ORIENTED_EDGE('',*,*,#235,.F.);
#106=ORIENTED_EDGE('',*,*,#218,.F.);
#107=ORIENTED_EDGE('',*,*,#263,.T.);
#108=ORIENTED_EDGE('',*,*,#237,.T.);
#109=ORIENTED_EDGE('',*,*,#265,.T.);
#110=ORIENTED_EDGE('',*,*,#261,.F.);
#111=ORIENTED_EDGE('',*,*,#216,.T.);
#112=ORIENTED_EDGE('',*,*,#266,.T.);
#113=ORIENTED_EDGE('',*,*,#267,.T.);
#114=ORIENTED_EDGE('',*,*,#268,.T.);
#115=ORIENTED_EDGE('',*,*,#269,.T.);
#116=ORIENTED_EDGE('',*,*,#270,.F.);
#117=ORIENTED_EDGE('',*,*,#271,.F.);
#118=ORIENTED_EDGE('',*,*,#262,.F.);
#119=ORIENTED_EDGE('',*,*,#265,.F.);
#120=ORIENTED_EDGE('',*,*,#236,.T.);
#121=ORIENTED_EDGE('',*,*,#264,.T.);
#122=ORIENTED_EDGE('',*,*,#272,.T.);
#123=ORIENTED_EDGE('',*,*,#273,.T.);
#124=ORIENTED_EDGE('',*,*,#274,.T.);
#125=ORIENTED_EDGE('',*,*,#268,.F.);
#126=ORIENTED_EDGE('',*,*,#275,.F.);
#127=ORIENTED_EDGE('',*,*,#274,.F.);
#128=ORIENTED_EDGE('',*,*,#276,.T.);
#129=ORIENTED_EDGE('',*,*,#277,.T.);
#130=ORIENTED_EDGE('',*,*,#269,.F.);
#131=ORIENTED_EDGE('',*,*,#278,.F.);
#132=ORIENTED_EDGE('',*,*,#279,.F.);
#133=ORIENTED_EDGE('',*,*,#280,.T.);
#134=ORIENTED_EDGE('',*,*,#270,.T.);
#135=ORIENTED_EDGE('',*,*,#277,.F.);
#136=ORIENTED_EDGE('',*,*,#271,.T.);
#137=ORIENTED_EDGE('',*,*,#280,.F.);
#138=ORIENTED_EDGE('',*,*,#281,.F.);
#139=ORIENTED_EDGE('',*,*,#275,.T.);
#140=ORIENTED_EDGE('',*,*,#282,.F.);
#141=ORIENTED_EDGE('',*,*,#283,.F.);
#142=ORIENTED_EDGE('',*,*,#284,.F.);
#143=ORIENTED_EDGE('',*,*,#285,.F.);
#144=ORIENTED_EDGE('',*,*,#286,.F.);
#145=ORIENTED_EDGE('',*,*,#287,.T.);
#146=ORIENTED_EDGE('',*,*,#288,.F.);
#147=ORIENTED_EDGE('',*,*,#272,.F.);
#148=ORIENTED_EDGE('',*,*,#281,.T.);
#149=ORIENTED_EDGE('',*,*,#279,.T.);
#150=ORIENTED_EDGE('',*,*,#287,.F.);
#151=ORIENTED_EDGE('',*,*,#289,.T.);
#152=ORIENTED_EDGE('',*,*,#290,.T.);
#153=ORIENTED_EDGE('',*,*,#289,.F.);
#154=ORIENTED_EDGE('',*,*,#286,.T.);
#155=ORIENTED_EDGE('',*,*,#291,.T.);
#156=ORIENTED_EDGE('',*,*,#292,.F.);
#157=ORIENTED_EDGE('',*,*,#291,.F.);
#158=ORIENTED_EDGE('',*,*,#285,.T.);
#159=ORIENTED_EDGE('',*,*,#293,.F.);
#160=ORIENTED_EDGE('',*,*,#294,.T.);
#161=ORIENTED_EDGE('',*,*,#295,.T.);
#162=ORIENTED_EDGE('',*,*,#293,.T.);
#163=ORIENTED_EDGE('',*,*,#284,.T.);
#164=ORIENTED_EDGE('',*,*,#278,.T.);
#165=ORIENTED_EDGE('',*,*,#276,.F.);
#166=ORIENTED_EDGE('',*,*,#273,.F.);
#167=ORIENTED_EDGE('',*,*,#288,.T.);
#168=ORIENTED_EDGE('',*,*,#290,.F.);
#169=ORIENTED_EDGE('',*,*,#292,.T.);
#170=ORIENTED_EDGE('',*,*,#295,.F.);
#171=ORIENTED_EDGE('',*,*,#242,.T.);
#172=ORIENTED_EDGE('',*,*,#294,.F.);
#173=ORIENTED_EDGE('',*,*,#241,.T.);
#174=ORIENTED_EDGE('',*,*,#267,.F.);
#175=ORIENTED_EDGE('',*,*,#283,.T.);
#176=ORIENTED_EDGE('',*,*,#266,.F.);
#177=ORIENTED_EDGE('',*,*,#282,.T.);
#178=ORIENTED_EDGE('',*,*,#224,.F.);
#179=ORIENTED_EDGE('',*,*,#239,.F.);
#180=ORIENTED_EDGE('',*,*,#244,.F.);
#181=ORIENTED_EDGE('',*,*,#257,.F.);
#182=ORIENTED_EDGE('',*,*,#222,.F.);
#183=ORIENTED_EDGE('',*,*,#253,.F.);
#184=ORIENTED_EDGE('',*,*,#245,.F.);
#185=ORIENTED_EDGE('',*,*,#240,.F.);
#186=ORIENTED_EDGE('',*,*,#228,.F.);
#187=ORIENTED_EDGE('',*,*,#259,.F.);
#188=ORIENTED_EDGE('',*,*,#247,.F.);
#189=ORIENTED_EDGE('',*,*,#252,.F.);
#190=ORIENTED_EDGE('',*,*,#226,.F.);
#191=ORIENTED_EDGE('',*,*,#258,.F.);
#192=ORIENTED_EDGE('',*,*,#249,.F.);
#193=ORIENTED_EDGE('',*,*,#260,.F.);
#194=ORIENTED_EDGE('',*,*,#214,.T.);
#195=ORIENTED_EDGE('',*,*,#251,.F.);
#196=ORIENTED_EDGE('',*,*,#296,.F.);
#197=ORIENTED_EDGE('',*,*,#230,.F.);
#198=ORIENTED_EDGE('',*,*,#234,.T.);
#199=ORIENTED_EDGE('',*,*,#297,.T.);
#200=ORIENTED_EDGE('',*,*,#254,.T.);
#201=ORIENTED_EDGE('',*,*,#220,.F.);
#202=ORIENTED_EDGE('',*,*,#233,.T.);
#203=ORIENTED_EDGE('',*,*,#298,.T.);
#204=ORIENTED_EDGE('',*,*,#255,.T.);
#205=ORIENTED_EDGE('',*,*,#297,.F.);
#206=ORIENTED_EDGE('',*,*,#299,.T.);
#207=ORIENTED_EDGE('',*,*,#256,.F.);
#208=ORIENTED_EDGE('',*,*,#298,.F.);
#209=ORIENTED_EDGE('',*,*,#232,.F.);
#210=ORIENTED_EDGE('',*,*,#231,.T.);
#211=ORIENTED_EDGE('',*,*,#296,.T.);
#212=ORIENTED_EDGE('',*,*,#250,.T.);
#213=ORIENTED_EDGE('',*,*,#299,.F.);
#214=EDGE_CURVE('',#300,#301,#360,.T.);
#215=EDGE_CURVE('',#300,#302,#361,.T.);
#216=EDGE_CURVE('',#303,#302,#362,.T.);
#217=EDGE_CURVE('',#304,#303,#363,.T.);
#218=EDGE_CURVE('',#304,#305,#364,.T.);
#219=EDGE_CURVE('',#305,#306,#365,.T.);
#220=EDGE_CURVE('',#306,#307,#366,.T.);
#221=EDGE_CURVE('',#307,#308,#367,.T.);
#222=EDGE_CURVE('',#308,#309,#34,.F.);
#223=EDGE_CURVE('',#309,#310,#368,.T.);
#224=EDGE_CURVE('',#310,#311,#35,.F.);
#225=EDGE_CURVE('',#311,#312,#369,.T.);
#226=EDGE_CURVE('',#312,#313,#36,.F.);
#227=EDGE_CURVE('',#313,#314,#370,.T.);
#228=EDGE_CURVE('',#314,#315,#37,.F.);
#229=EDGE_CURVE('',#315,#301,#371,.T.);
#230=EDGE_CURVE('',#300,#316,#372,.T.);
#231=EDGE_CURVE('',#317,#316,#22,.T.);
#232=EDGE_CURVE('',#317,#318,#373,.T.);
#233=EDGE_CURVE('',#319,#318,#23,.T.);
#234=EDGE_CURVE('',#306,#319,#374,.T.);
#235=EDGE_CURVE('',#305,#320,#375,.T.);
#236=EDGE_CURVE('',#321,#320,#376,.T.);
#237=EDGE_CURVE('',#302,#321,#377,.T.);
#238=EDGE_CURVE('',#322,#323,#378,.T.);
#239=EDGE_CURVE('',#323,#310,#379,.F.);
#240=EDGE_CURVE('',#309,#322,#380,.T.);
#241=EDGE_CURVE('',#324,#324,#38,.F.);
#242=EDGE_CURVE('',#325,#325,#39,.F.);
#243=EDGE_CURVE('',#326,#327,#381,.T.);
#244=EDGE_CURVE('',#327,#323,#24,.F.);
#245=EDGE_CURVE('',#322,#328,#25,.F.);
#246=EDGE_CURVE('',#329,#328,#382,.T.);
#247=EDGE_CURVE('',#329,#330,#26,.F.);
#248=EDGE_CURVE('',#330,#331,#383,.T.);
#249=EDGE_CURVE('',#331,#326,#27,.F.);
#250=EDGE_CURVE('',#332,#333,#28,.T.);
#251=EDGE_CURVE('',#332,#301,#384,.T.);
#252=EDGE_CURVE('',#315,#329,#385,.T.);
#253=EDGE_CURVE('',#328,#308,#386,.F.);
#254=EDGE_CURVE('',#334,#307,#387,.T.);
#255=EDGE_CURVE('',#335,#334,#29,.T.);
#256=EDGE_CURVE('',#335,#333,#388,.T.);
#257=EDGE_CURVE('',#311,#327,#389,.T.);
#258=EDGE_CURVE('',#326,#312,#390,.F.);
#259=EDGE_CURVE('',#330,#314,#391,.F.);
#260=EDGE_CURVE('',#313,#331,#392,.T.);
#261=EDGE_CURVE('',#303,#336,#393,.T.);
#262=EDGE_CURVE('',#336,#337,#394,.T.);
#263=EDGE_CURVE('',#304,#337,#395,.T.);
#264=EDGE_CURVE('',#320,#337,#396,.T.);
#265=EDGE_CURVE('',#321,#336,#397,.T.);
#266=EDGE_CURVE('',#338,#338,#30,.F.);
#267=EDGE_CURVE('',#339,#339,#31,.F.);
#268=EDGE_CURVE('',#340,#341,#398,.T.);
#269=EDGE_CURVE('',#341,#342,#399,.T.);
#270=EDGE_CURVE('',#343,#342,#400,.T.);
#271=EDGE_CURVE('',#340,#343,#401,.T.);
#272=EDGE_CURVE('',#344,#345,#402,.T.);
#273=EDGE_CURVE('',#345,#346,#403,.T.);
#274=EDGE_CURVE('',#346,#341,#404,.T.);
#275=EDGE_CURVE('',#344,#340,#405,.T.);
#276=EDGE_CURVE('',#346,#347,#406,.T.);
#277=EDGE_CURVE('',#347,#342,#407,.T.);
#278=EDGE_CURVE('',#348,#347,#408,.T.);
#279=EDGE_CURVE('',#349,#348,#409,.T.);
#280=EDGE_CURVE('',#349,#343,#410,.T.);
#281=EDGE_CURVE('',#344,#349,#411,.T.);
#282=EDGE_CURVE('',#350,#350,#32,.F.);
#283=EDGE_CURVE('',#351,#351,#33,.F.);
#284=EDGE_CURVE('',#352,#348,#412,.T.);
#285=EDGE_CURVE('',#353,#352,#413,.T.);
#286=EDGE_CURVE('',#354,#353,#414,.T.);
#287=EDGE_CURVE('',#354,#355,#415,.T.);
#288=EDGE_CURVE('',#345,#355,#416,.T.);
#289=EDGE_CURVE('',#354,#356,#417,.T.);
#290=EDGE_CURVE('',#356,#355,#418,.T.);
#291=EDGE_CURVE('',#353,#357,#419,.T.);
#292=EDGE_CURVE('',#356,#357,#420,.T.);
#293=EDGE_CURVE('',#357,#352,#421,.T.);
#294=EDGE_CURVE('',#358,#358,#40,.F.);
#295=EDGE_CURVE('',#359,#359,#41,.F.);
#296=EDGE_CURVE('',#316,#332,#422,.T.);
#297=EDGE_CURVE('',#319,#334,#423,.T.);
#298=EDGE_CURVE('',#318,#335,#424,.T.);
#299=EDGE_CURVE('',#317,#333,#425,.T.);
#300=VERTEX_POINT('',#883);
#301=VERTEX_POINT('',#884);
#302=VERTEX_POINT('',#886);
#303=VERTEX_POINT('',#888);
#304=VERTEX_POINT('',#890);
#305=VERTEX_POINT('',#892);
#306=VERTEX_POINT('',#894);
#307=VERTEX_POINT('',#896);
#308=VERTEX_POINT('',#898);
#309=VERTEX_POINT('',#900);
#310=VERTEX_POINT('',#902);
#311=VERTEX_POINT('',#904);
#312=VERTEX_POINT('',#906);
#313=VERTEX_POINT('',#908);
#314=VERTEX_POINT('',#910);
#315=VERTEX_POINT('',#912);
#316=VERTEX_POINT('',#916);
#317=VERTEX_POINT('',#918);
#318=VERTEX_POINT('',#920);
#319=VERTEX_POINT('',#922);
#320=VERTEX_POINT('',#925);
#321=VERTEX_POINT('',#927);
#322=VERTEX_POINT('',#931);
#323=VERTEX_POINT('',#932);
#324=VERTEX_POINT('',#937);
#325=VERTEX_POINT('',#939);
#326=VERTEX_POINT('',#941);
#327=VERTEX_POINT('',#942);
#328=VERTEX_POINT('',#945);
#329=VERTEX_POINT('',#947);
#330=VERTEX_POINT('',#949);
#331=VERTEX_POINT('',#951);
#332=VERTEX_POINT('',#955);
#333=VERTEX_POINT('',#956);
#334=VERTEX_POINT('',#961);
#335=VERTEX_POINT('',#963);
#336=VERTEX_POINT('',#973);
#337=VERTEX_POINT('',#975);
#338=VERTEX_POINT('',#983);
#339=VERTEX_POINT('',#985);
#340=VERTEX_POINT('',#987);
#341=VERTEX_POINT('',#988);
#342=VERTEX_POINT('',#990);
#343=VERTEX_POINT('',#992);
#344=VERTEX_POINT('',#996);
#345=VERTEX_POINT('',#997);
#346=VERTEX_POINT('',#999);
#347=VERTEX_POINT('',#1004);
#348=VERTEX_POINT('',#1008);
#349=VERTEX_POINT('',#1010);
#350=VERTEX_POINT('',#1016);
#351=VERTEX_POINT('',#1018);
#352=VERTEX_POINT('',#1020);
#353=VERTEX_POINT('',#1022);
#354=VERTEX_POINT('',#1024);
#355=VERTEX_POINT('',#1026);
#356=VERTEX_POINT('',#1030);
#357=VERTEX_POINT('',#1034);
#358=VERTEX_POINT('',#1040);
#359=VERTEX_POINT('',#1042);
#360=LINE('',#882,#426);
#361=LINE('',#885,#427);
#362=LINE('',#887,#428);
#363=LINE('',#889,#429);
#364=LINE('',#891,#430);
#365=LINE('',#893,#431);
#366=LINE('',#895,#432);
#367=LINE('',#897,#433);
#368=LINE('',#901,#434);
#369=LINE('',#905,#435);
#370=LINE('',#909,#436);
#371=LINE('',#913,#437);
#372=LINE('',#915,#438);
#373=LINE('',#919,#439);
#374=LINE('',#923,#440);
#375=LINE('',#924,#441);
#376=LINE('',#926,#442);
#377=LINE('',#928,#443);
#378=LINE('',#930,#444);
#379=LINE('',#933,#445);
#380=LINE('',#934,#446);
#381=LINE('',#940,#447);
#382=LINE('',#946,#448);
#383=LINE('',#950,#449);
#384=LINE('',#957,#450);
#385=LINE('',#958,#451);
#386=LINE('',#959,#452);
#387=LINE('',#960,#453);
#388=LINE('',#964,#454);
#389=LINE('',#966,#455);
#390=LINE('',#967,#456);
#391=LINE('',#969,#457);
#392=LINE('',#970,#458);
#393=LINE('',#972,#459);
#394=LINE('',#974,#460);
#395=LINE('',#976,#461);
#396=LINE('',#978,#462);
#397=LINE('',#980,#463);
#398=LINE('',#986,#464);
#399=LINE('',#989,#465);
#400=LINE('',#991,#466);
#401=LINE('',#993,#467);
#402=LINE('',#995,#468);
#403=LINE('',#998,#469);
#404=LINE('',#1000,#470);
#405=LINE('',#1001,#471);
#406=LINE('',#1003,#472);
#407=LINE('',#1005,#473);
#408=LINE('',#1007,#474);
#409=LINE('',#1009,#475);
#410=LINE('',#1011,#476);
#411=LINE('',#1013,#477);
#412=LINE('',#1019,#478);
#413=LINE('',#1021,#479);
#414=LINE('',#1023,#480);
#415=LINE('',#1025,#481);
#416=LINE('',#1027,#482);
#417=LINE('',#1029,#483);
#418=LINE('',#1031,#484);
#419=LINE('',#1033,#485);
#420=LINE('',#1035,#486);
#421=LINE('',#1037,#487);
#422=LINE('',#1052,#488);
#423=LINE('',#1054,#489);
#424=LINE('',#1056,#490);
#425=LINE('',#1058,#491);
#426=VECTOR('',#710,1.);
#427=VECTOR('',#711,1.);
#428=VECTOR('',#712,1.);
#429=VECTOR('',#713,1.);
#430=VECTOR('',#714,1.);
#431=VECTOR('',#715,1.);
#432=VECTOR('',#716,1.);
#433=VECTOR('',#717,1.);
#434=VECTOR('',#720,1.);
#435=VECTOR('',#723,1.);
#436=VECTOR('',#726,1.);
#437=VECTOR('',#729,1.);
#438=VECTOR('',#732,1.);
#439=VECTOR('',#735,1.);
#440=VECTOR('',#738,1.);
#441=VECTOR('',#739,1.);
#442=VECTOR('',#740,1.);
#443=VECTOR('',#741,1.);
#444=VECTOR('',#744,1.);
#445=VECTOR('',#745,1.);
#446=VECTOR('',#746,1.);
#447=VECTOR('',#753,1.);
#448=VECTOR('',#758,1.);
#449=VECTOR('',#761,1.);
#450=VECTOR('',#768,1.);
#451=VECTOR('',#769,1.);
#452=VECTOR('',#770,1.);
#453=VECTOR('',#771,1.);
#454=VECTOR('',#774,1.);
#455=VECTOR('',#777,1.);
#456=VECTOR('',#778,1.);
#457=VECTOR('',#781,1.);
#458=VECTOR('',#782,1.);
#459=VECTOR('',#785,1.);
#460=VECTOR('',#786,1.);
#461=VECTOR('',#787,1.);
#462=VECTOR('',#790,1.);
#463=VECTOR('',#793,1.);
#464=VECTOR('',#800,1.);
#465=VECTOR('',#801,1.);
#466=VECTOR('',#802,1.);
#467=VECTOR('',#803,1.);
#468=VECTOR('',#806,1.);
#469=VECTOR('',#807,1.);
#470=VECTOR('',#808,1.);
#471=VECTOR('',#809,1.);
#472=VECTOR('',#812,1.);
#473=VECTOR('',#813,1.);
#474=VECTOR('',#816,1.);
#475=VECTOR('',#817,1.);
#476=VECTOR('',#818,1.);
#477=VECTOR('',#821,1.);
#478=VECTOR('',#828,1.);
#479=VECTOR('',#829,1.);
#480=VECTOR('',#830,1.);
#481=VECTOR('',#831,1.);
#482=VECTOR('',#832,1.);
#483=VECTOR('',#835,1.);
#484=VECTOR('',#836,1.);
#485=VECTOR('',#839,1.);
#486=VECTOR('',#840,1.);
#487=VECTOR('',#843,1.);
#488=VECTOR('',#868,1.);
#489=VECTOR('',#871,1.);
#490=VECTOR('',#874,1.);
#491=VECTOR('',#877,1.);
#492=EDGE_LOOP('',(#42,#43,#44,#45,#46,#47,#48,#49,#50,#51,#52,#53,#54,
#55,#56,#57));
#493=EDGE_LOOP('',(#58,#59,#60,#61,#62,#63,#64,#65,#66,#67));
#494=EDGE_LOOP('',(#68,#69,#70,#71));
#495=EDGE_LOOP('',(#72));
#496=EDGE_LOOP('',(#73));
#497=EDGE_LOOP('',(#74,#75,#76,#77,#78,#79,#80,#81));
#498=EDGE_LOOP('',(#82,#83,#84,#85,#86,#87,#88,#89,#90,#91));
#499=EDGE_LOOP('',(#92,#93,#94,#95));
#500=EDGE_LOOP('',(#96,#97,#98,#99));
#501=EDGE_LOOP('',(#100,#101,#102,#103));
#502=EDGE_LOOP('',(#104,#105,#106,#107));
#503=EDGE_LOOP('',(#108,#109,#110,#111));
#504=EDGE_LOOP('',(#112));
#505=EDGE_LOOP('',(#113));
#506=EDGE_LOOP('',(#114,#115,#116,#117));
#507=EDGE_LOOP('',(#118,#119,#120,#121));
#508=EDGE_LOOP('',(#122,#123,#124,#125,#126));
#509=EDGE_LOOP('',(#127,#128,#129,#130));
#510=EDGE_LOOP('',(#131,#132,#133,#134,#135));
#511=EDGE_LOOP('',(#136,#137,#138,#139));
#512=EDGE_LOOP('',(#140));
#513=EDGE_LOOP('',(#141));
#514=EDGE_LOOP('',(#142,#143,#144,#145,#146,#147,#148,#149));
#515=EDGE_LOOP('',(#150,#151,#152));
#516=EDGE_LOOP('',(#153,#154,#155,#156));
#517=EDGE_LOOP('',(#157,#158,#159));
#518=EDGE_LOOP('',(#160));
#519=EDGE_LOOP('',(#161));
#520=EDGE_LOOP('',(#162,#163,#164,#165,#166,#167,#168,#169));
#521=EDGE_LOOP('',(#170));
#522=EDGE_LOOP('',(#171));
#523=EDGE_LOOP('',(#172));
#524=EDGE_LOOP('',(#173));
#525=EDGE_LOOP('',(#174));
#526=EDGE_LOOP('',(#175));
#527=EDGE_LOOP('',(#176));
#528=EDGE_LOOP('',(#177));
#529=EDGE_LOOP('',(#178,#179,#180,#181));
#530=EDGE_LOOP('',(#182,#183,#184,#185));
#531=EDGE_LOOP('',(#186,#187,#188,#189));
#532=EDGE_LOOP('',(#190,#191,#192,#193));
#533=EDGE_LOOP('',(#194,#195,#196,#197));
#534=EDGE_LOOP('',(#198,#199,#200,#201));
#535=EDGE_LOOP('',(#202,#203,#204,#205));
#536=EDGE_LOOP('',(#206,#207,#208,#209));
#537=EDGE_LOOP('',(#210,#211,#212,#213));
#538=FACE_BOUND('',#492,.T.);
#539=FACE_BOUND('',#493,.T.);
#540=FACE_BOUND('',#494,.T.);
#541=FACE_BOUND('',#495,.T.);
#542=FACE_BOUND('',#496,.T.);
#543=FACE_BOUND('',#497,.T.);
#544=FACE_BOUND('',#498,.T.);
#545=FACE_BOUND('',#499,.T.);
#546=FACE_BOUND('',#500,.T.);
#547=FACE_BOUND('',#501,.T.);
#548=FACE_BOUND('',#502,.T.);
#549=FACE_BOUND('',#503,.T.);
#550=FACE_BOUND('',#504,.T.);
#551=FACE_BOUND('',#505,.T.);
#552=FACE_BOUND('',#506,.T.);
#553=FACE_BOUND('',#507,.T.);
#554=FACE_BOUND('',#508,.T.);
#555=FACE_BOUND('',#509,.T.);
#556=FACE_BOUND('',#510,.T.);
#557=FACE_BOUND('',#511,.T.);
#558=FACE_BOUND('',#512,.T.);
#559=FACE_BOUND('',#513,.T.);
#560=FACE_BOUND('',#514,.T.);
#561=FACE_BOUND('',#515,.T.);
#562=FACE_BOUND('',#516,.T.);
#563=FACE_BOUND('',#517,.T.);
#564=FACE_BOUND('',#518,.T.);
#565=FACE_BOUND('',#519,.T.);
#566=FACE_BOUND('',#520,.T.);
#567=FACE_BOUND('',#521,.T.);
#568=FACE_BOUND('',#522,.T.);
#569=FACE_BOUND('',#523,.T.);
#570=FACE_BOUND('',#524,.T.);
#571=FACE_BOUND('',#525,.T.);
#572=FACE_BOUND('',#526,.T.);
#573=FACE_BOUND('',#527,.T.);
#574=FACE_BOUND('',#528,.T.);
#575=FACE_BOUND('',#529,.T.);
#576=FACE_BOUND('',#530,.T.);
#577=FACE_BOUND('',#531,.T.);
#578=FACE_BOUND('',#532,.T.);
#579=FACE_BOUND('',#533,.T.);
#580=FACE_BOUND('',#534,.T.);
#581=FACE_BOUND('',#535,.T.);
#582=FACE_BOUND('',#536,.T.);
#583=FACE_BOUND('',#537,.T.);
#584=PLANE('',#653);
#585=PLANE('',#658);
#586=PLANE('',#661);
#587=PLANE('',#662);
#588=PLANE('',#669);
#589=PLANE('',#672);
#590=PLANE('',#673);
#591=PLANE('',#674);
#592=PLANE('',#675);
#593=PLANE('',#676);
#594=PLANE('',#677);
#595=PLANE('',#680);
#596=PLANE('',#681);
#597=PLANE('',#682);
#598=PLANE('',#683);
#599=PLANE('',#684);
#600=PLANE('',#687);
#601=PLANE('',#688);
#602=PLANE('',#689);
#603=PLANE('',#690);
#604=PLANE('',#701);
#605=PLANE('',#702);
#606=PLANE('',#704);
#607=ADVANCED_FACE('',(#538),#584,.F.);
#608=ADVANCED_FACE('',(#539),#585,.T.);
#609=ADVANCED_FACE('',(#540),#586,.F.);
#610=ADVANCED_FACE('',(#541,#542,#543),#587,.F.);
#611=ADVANCED_FACE('',(#544),#588,.F.);
#612=ADVANCED_FACE('',(#545),#589,.T.);
#613=ADVANCED_FACE('',(#546),#590,.T.);
#614=ADVANCED_FACE('',(#547),#591,.F.);
#615=ADVANCED_FACE('',(#548),#592,.T.);
#616=ADVANCED_FACE('',(#549),#593,.F.);
#617=ADVANCED_FACE('',(#550,#551,#552,#553),#594,.T.);
#618=ADVANCED_FACE('',(#554),#595,.T.);
#619=ADVANCED_FACE('',(#555),#596,.T.);
#620=ADVANCED_FACE('',(#556),#597,.F.);
#621=ADVANCED_FACE('',(#557),#598,.F.);
#622=ADVANCED_FACE('',(#558,#559,#560),#599,.F.);
#623=ADVANCED_FACE('',(#561),#600,.F.);
#624=ADVANCED_FACE('',(#562),#601,.T.);
#625=ADVANCED_FACE('',(#563),#602,.T.);
#626=ADVANCED_FACE('',(#564,#565,#566),#603,.T.);
#627=ADVANCED_FACE('',(#567,#568),#12,.F.);
#628=ADVANCED_FACE('',(#569,#570),#13,.F.);
#629=ADVANCED_FACE('',(#571,#572),#14,.F.);
#630=ADVANCED_FACE('',(#573,#574),#15,.F.);
#631=ADVANCED_FACE('',(#575),#16,.T.);
#632=ADVANCED_FACE('',(#576),#17,.T.);
#633=ADVANCED_FACE('',(#577),#18,.T.);
#634=ADVANCED_FACE('',(#578),#19,.T.);
#635=ADVANCED_FACE('',(#579),#604,.T.);
#636=ADVANCED_FACE('',(#580),#605,.F.);
#637=ADVANCED_FACE('',(#581),#20,.F.);
#638=ADVANCED_FACE('',(#582),#606,.T.);
#639=ADVANCED_FACE('',(#583),#21,.F.);
#640=CLOSED_SHELL('',(#607,#608,#609,#610,#611,#612,#613,#614,#615,#616,
#617,#618,#619,#620,#621,#622,#623,#624,#625,#626,#627,#628,#629,#630,#631,
#632,#633,#634,#635,#636,#637,#638,#639));
#641=STYLED_ITEM('',(#642),#649);
#642=PRESENTATION_STYLE_ASSIGNMENT((#643));
#643=SURFACE_STYLE_USAGE(.BOTH.,#644);
#644=SURFACE_SIDE_STYLE('',(#645));
#645=SURFACE_STYLE_FILL_AREA(#646);
#646=FILL_AREA_STYLE('',(#647));
#647=FILL_AREA_STYLE_COLOUR('',#648);
#648=COLOUR_RGB('',0.615686274509804,0.811764705882353,0.929411764705882);
#649=MANIFOLD_SOLID_BREP('Part 1',#640);
#650=SHAPE_DEFINITION_REPRESENTATION(#1066,#651);
#651=SHAPE_REPRESENTATION('Part 1',(#652),#1061);
#652=AXIS2_PLACEMENT_3D('',#880,#706,#707);
#653=AXIS2_PLACEMENT_3D('',#881,#708,#709);
#654=AXIS2_PLACEMENT_3D('',#899,#718,#719);
#655=AXIS2_PLACEMENT_3D('',#903,#721,#722);
#656=AXIS2_PLACEMENT_3D('',#907,#724,#725);
#657=AXIS2_PLACEMENT_3D('',#911,#727,#728);
#658=AXIS2_PLACEMENT_3D('',#914,#730,#731);
#659=AXIS2_PLACEMENT_3D('',#917,#733,#734);
#660=AXIS2_PLACEMENT_3D('',#921,#736,#737);
#661=AXIS2_PLACEMENT_3D('',#929,#742,#743);
#662=AXIS2_PLACEMENT_3D('',#935,#747,#748);
#663=AXIS2_PLACEMENT_3D('',#936,#749,#750);
#664=AXIS2_PLACEMENT_3D('',#938,#751,#752);
#665=AXIS2_PLACEMENT_3D('',#943,#754,#755);
#666=AXIS2_PLACEMENT_3D('',#944,#756,#757);
#667=AXIS2_PLACEMENT_3D('',#948,#759,#760);
#668=AXIS2_PLACEMENT_3D('',#952,#762,#763);
#669=AXIS2_PLACEMENT_3D('',#953,#764,#765);
#670=AXIS2_PLACEMENT_3D('',#954,#766,#767);
#671=AXIS2_PLACEMENT_3D('',#962,#772,#773);
#672=AXIS2_PLACEMENT_3D('',#965,#775,#776);
#673=AXIS2_PLACEMENT_3D('',#968,#779,#780);
#674=AXIS2_PLACEMENT_3D('',#971,#783,#784);
#675=AXIS2_PLACEMENT_3D('',#977,#788,#789);
#676=AXIS2_PLACEMENT_3D('',#979,#791,#792);
#677=AXIS2_PLACEMENT_3D('',#981,#794,#795);
#678=AXIS2_PLACEMENT_3D('',#982,#796,#797);
#679=AXIS2_PLACEMENT_3D('',#984,#798,#799);
#680=AXIS2_PLACEMENT_3D('',#994,#804,#805);
#681=AXIS2_PLACEMENT_3D('',#1002,#810,#811);
#682=AXIS2_PLACEMENT_3D('',#1006,#814,#815);
#683=AXIS2_PLACEMENT_3D('',#1012,#819,#820);
#684=AXIS2_PLACEMENT_3D('',#1014,#822,#823);
#685=AXIS2_PLACEMENT_3D('',#1015,#824,#825);
#686=AXIS2_PLACEMENT_3D('',#1017,#826,#827);
#687=AXIS2_PLACEMENT_3D('',#1028,#833,#834);
#688=AXIS2_PLACEMENT_3D('',#1032,#837,#838);
#689=AXIS2_PLACEMENT_3D('',#1036,#841,#842);
#690=AXIS2_PLACEMENT_3D('',#1038,#844,#845);
#691=AXIS2_PLACEMENT_3D('',#1039,#846,#847);
#692=AXIS2_PLACEMENT_3D('',#1041,#848,#849);
#693=AXIS2_PLACEMENT_3D('',#1043,#850,#851);
#694=AXIS2_PLACEMENT_3D('',#1044,#852,#853);
#695=AXIS2_PLACEMENT_3D('',#1045,#854,#855);
#696=AXIS2_PLACEMENT_3D('',#1046,#856,#857);
#697=AXIS2_PLACEMENT_3D('',#1047,#858,#859);
#698=AXIS2_PLACEMENT_3D('',#1048,#860,#861);
#699=AXIS2_PLACEMENT_3D('',#1049,#862,#863);
#700=AXIS2_PLACEMENT_3D('',#1050,#864,#865);
#701=AXIS2_PLACEMENT_3D('',#1051,#866,#867);
#702=AXIS2_PLACEMENT_3D('',#1053,#869,#870);
#703=AXIS2_PLACEMENT_3D('',#1055,#872,#873);
#704=AXIS2_PLACEMENT_3D('',#1057,#875,#876);
#705=AXIS2_PLACEMENT_3D('',#1059,#878,#879);
#706=DIRECTION('',(0.,0.,1.));
#707=DIRECTION('',(1.,0.,0.));
#708=DIRECTION('',(0.,0.0608773635800825,-0.998145253259033));
#709=DIRECTION('',(0.,0.998145253259033,0.0608773635800825));
#710=DIRECTION('',(0.,0.998145253259033,0.0608773635800825));
#711=DIRECTION('',(1.,0.,0.));
#712=DIRECTION('',(0.,0.998145253259033,0.0608773635800825));
#713=DIRECTION('',(1.,0.,0.));
#714=DIRECTION('',(0.,0.998145253259033,0.0608773635800825));
#715=DIRECTION('',(1.,0.,0.));
#716=DIRECTION('',(0.,0.998145253259033,0.0608773635800825));
#717=DIRECTION('',(-1.,0.,0.));
#718=DIRECTION('',(0.,0.0608773635800825,-0.998145253259033));
#719=DIRECTION('',(0.,-0.998145253259033,-0.0608773635800825));
#720=DIRECTION('',(0.,-0.998145253259033,-0.0608773635800825));
#721=DIRECTION('',(0.,0.0608773635800825,-0.998145253259033));
#722=DIRECTION('',(0.,0.998145253259033,0.0608773635800825));
#723=DIRECTION('',(1.,0.,0.));
#724=DIRECTION('',(0.,0.0608773635800825,-0.998145253259033));
#725=DIRECTION('',(0.,-0.998145253259033,-0.0608773635800825));
#726=DIRECTION('',(0.,0.998145253259033,0.0608773635800825));
#727=DIRECTION('',(0.,0.0608773635800825,-0.998145253259033));
#728=DIRECTION('',(0.,0.998145253259033,0.0608773635800825));
#729=DIRECTION('',(-1.,0.,0.));
#730=DIRECTION('',(0.,-1.,0.));
#731=DIRECTION('',(0.,0.,-1.));
#732=DIRECTION('',(0.,0.,-1.));
#733=DIRECTION('',(0.,-1.,0.));
#734=DIRECTION('',(0.,0.,-1.));
#735=DIRECTION('',(-1.,0.,0.));
#736=DIRECTION('',(0.,-1.,0.));
#737=DIRECTION('',(0.,0.,-1.));
#738=DIRECTION('',(0.,0.,-1.));
#739=DIRECTION('',(0.,0.,-1.));
#740=DIRECTION('',(-1.,0.,0.));
#741=DIRECTION('',(0.,0.,-1.));
#742=DIRECTION('',(1.,0.,0.));
#743=DIRECTION('',(0.,0.,-1.));
#744=DIRECTION('',(0.,-1.,0.));
#745=DIRECTION('',(0.,0.,-1.));
#746=DIRECTION('',(0.,0.,-1.));
#747=DIRECTION('',(0.,0.,1.));
#748=DIRECTION('',(1.,0.,0.));
#749=DIRECTION('',(0.,0.,1.));
#750=DIRECTION('',(0.,1.,0.));
#751=DIRECTION('',(0.,0.,1.));
#752=DIRECTION('',(0.,1.,0.));
#753=DIRECTION('',(-1.,0.,0.));
#754=DIRECTION('',(0.,0.,1.));
#755=DIRECTION('',(1.,0.,0.));
#756=DIRECTION('',(0.,0.,1.));
#757=DIRECTION('',(1.,0.,0.));
#758=DIRECTION('',(-1.,0.,0.));
#759=DIRECTION('',(0.,0.,1.));
#760=DIRECTION('',(1.,0.,0.));
#761=DIRECTION('',(0.,-1.,0.));
#762=DIRECTION('',(0.,0.,1.));
#763=DIRECTION('',(1.,0.,0.));
#764=DIRECTION('',(0.,-1.,0.));
#765=DIRECTION('',(0.,0.,-1.));
#766=DIRECTION('',(0.,1.,0.));
#767=DIRECTION('',(0.,0.,1.));
#768=DIRECTION('',(0.,0.,1.));
#769=DIRECTION('',(0.,0.,-1.));
#770=DIRECTION('',(0.,0.,-1.));
#771=DIRECTION('',(0.,0.,1.));
#772=DIRECTION('',(0.,1.,0.));
#773=DIRECTION('',(0.,0.,1.));
#774=DIRECTION('',(1.,0.,0.));
#775=DIRECTION('',(0.,-1.,0.));
#776=DIRECTION('',(0.,0.,-1.));
#777=DIRECTION('',(0.,0.,-1.));
#778=DIRECTION('',(0.,0.,-1.));
#779=DIRECTION('',(1.,0.,0.));
#780=DIRECTION('',(0.,0.,-1.));
#781=DIRECTION('',(0.,0.,-1.));
#782=DIRECTION('',(0.,0.,-1.));
#783=DIRECTION('',(0.,-1.,0.));
#784=DIRECTION('',(0.,0.,-1.));
#785=DIRECTION('',(0.,0.,-1.));
#786=DIRECTION('',(-1.,0.,0.));
#787=DIRECTION('',(0.,0.,-1.));
#788=DIRECTION('',(1.,0.,0.));
#789=DIRECTION('',(0.,0.,-1.));
#790=DIRECTION('',(0.,-0.998145253259033,-0.0608773635800825));
#791=DIRECTION('',(1.,0.,0.));
#792=DIRECTION('',(0.,0.,-1.));
#793=DIRECTION('',(0.,-0.998145253259033,-0.0608773635800825));
#794=DIRECTION('',(0.,-0.0608773635800825,0.998145253259033));
#795=DIRECTION('',(1.,0.,0.));
#796=DIRECTION('',(0.,-0.0608773635800825,0.998145253259033));
#797=DIRECTION('',(0.,-0.998145253259033,-0.0608773635800825));
#798=DIRECTION('',(0.,-0.0608773635800825,0.998145253259033));
#799=DIRECTION('',(0.,-0.998145253259033,-0.0608773635800825));
#800=DIRECTION('',(0.,-0.998145253259033,-0.0608773635800825));
#801=DIRECTION('',(-1.,0.,0.));
#802=DIRECTION('',(0.,-0.998145253259033,-0.0608773635800825));
#803=DIRECTION('',(-1.,-9.8577310656429E-17,-6.01227803466876E-18));
#804=DIRECTION('',(-1.,0.,0.));
#805=DIRECTION('',(0.,0.,1.));
#806=DIRECTION('',(0.,-0.998145253259033,-0.0608773635800825));
#807=DIRECTION('',(0.,-1.,0.));
#808=DIRECTION('',(0.,-0.0608773635800825,0.998145253259033));
#809=DIRECTION('',(0.,-0.0608773635800825,0.998145253259033));
#810=DIRECTION('',(0.,0.998145253259033,0.0608773635800825));
#811=DIRECTION('',(0.,-0.0608773635800825,0.998145253259033));
#812=DIRECTION('',(-1.,0.,0.));
#813=DIRECTION('',(0.,-0.0608773635800825,0.998145253259033));
#814=DIRECTION('',(-1.,0.,0.));
#815=DIRECTION('',(0.,0.,1.));
#816=DIRECTION('',(0.,-1.,0.));
#817=DIRECTION('',(0.,-0.998145253259033,-0.0608773635800825));
#818=DIRECTION('',(0.,-0.0608773635800825,0.998145253259033));
#819=DIRECTION('',(-9.87604863466167E-17,0.998145253259033,0.0608773635800825));
#820=DIRECTION('',(0.,-0.0608773635800825,0.998145253259033));
#821=DIRECTION('',(-1.,-9.8577310656429E-17,-6.01227803466876E-18));
#822=DIRECTION('',(0.,-0.0608773635800825,0.998145253259033));
#823=DIRECTION('',(1.,0.,0.));
#824=DIRECTION('',(0.,-0.0608773635800825,0.998145253259033));
#825=DIRECTION('',(0.,-0.998145253259033,-0.0608773635800825));
#826=DIRECTION('',(0.,-0.0608773635800825,0.998145253259033));
#827=DIRECTION('',(0.,-0.998145253259033,-0.0608773635800825));
#828=DIRECTION('',(1.,0.,0.));
#829=DIRECTION('',(0.,-0.998145253259033,-0.0608773635800825));
#830=DIRECTION('',(-1.,0.,0.));
#831=DIRECTION('',(0.,-0.998145253259033,-0.0608773635800825));
#832=DIRECTION('',(1.,0.,0.));
#833=DIRECTION('',(1.,0.,0.));
#834=DIRECTION('',(0.,0.,-1.));
#835=DIRECTION('',(0.,0.,-1.));
#836=DIRECTION('',(0.,-1.,0.));
#837=DIRECTION('',(0.,-1.,0.));
#838=DIRECTION('',(0.,0.,-1.));
#839=DIRECTION('',(0.,0.,-1.));
#840=DIRECTION('',(-1.,0.,0.));
#841=DIRECTION('',(1.,0.,0.));
#842=DIRECTION('',(0.,0.,-1.));
#843=DIRECTION('',(0.,-1.,0.));
#844=DIRECTION('',(0.,0.,1.));
#845=DIRECTION('',(1.,0.,0.));
#846=DIRECTION('',(0.,0.,1.));
#847=DIRECTION('',(0.,1.,0.));
#848=DIRECTION('',(0.,0.,1.));
#849=DIRECTION('',(0.,1.,0.));
#850=DIRECTION('',(0.,0.0608773635800825,-0.998145253259033));
#851=DIRECTION('',(0.,0.998145253259033,0.0608773635800825));
#852=DIRECTION('',(0.,0.0608773635800825,-0.998145253259033));
#853=DIRECTION('',(0.,0.998145253259033,0.0608773635800825));
#854=DIRECTION('',(0.,0.0608773635800825,-0.998145253259033));
#855=DIRECTION('',(0.,0.998145253259033,0.0608773635800825));
#856=DIRECTION('',(0.,0.0608773635800825,-0.998145253259033));
#857=DIRECTION('',(0.,0.998145253259033,0.0608773635800825));
#858=DIRECTION('',(0.,0.,1.));
#859=DIRECTION('',(1.,0.,0.));
#860=DIRECTION('',(0.,0.,-1.));
#861=DIRECTION('',(-1.,0.,0.));
#862=DIRECTION('',(0.,0.,1.));
#863=DIRECTION('',(1.,0.,0.));
#864=DIRECTION('',(0.,0.,-1.));
#865=DIRECTION('',(-1.,0.,0.));
#866=DIRECTION('',(-1.,0.,0.));
#867=DIRECTION('',(0.,0.,1.));
#868=DIRECTION('',(0.,1.,0.));
#869=DIRECTION('',(-1.,0.,0.));
#870=DIRECTION('',(0.,0.,1.));
#871=DIRECTION('',(0.,1.,0.));
#872=DIRECTION('',(0.,1.,0.));
#873=DIRECTION('',(0.,0.,1.));
#874=DIRECTION('',(0.,1.,0.));
#875=DIRECTION('',(0.,0.,1.));
#876=DIRECTION('',(1.,0.,0.));
#877=DIRECTION('',(0.,1.,0.));
#878=DIRECTION('',(0.,1.,0.));
#879=DIRECTION('',(0.,0.,1.));
#880=CARTESIAN_POINT('',(0.,0.,0.));
#881=CARTESIAN_POINT('',(-0.151212,-1.38777878078145E-17,0.015));
#882=CARTESIAN_POINT('',(-0.126448402249927,-1.38777878078145E-17,0.015));
#883=CARTESIAN_POINT('',(-0.126448402249927,0.07698,0.0196950475725787));
#884=CARTESIAN_POINT('',(-0.126448402249927,0.08198,0.02));
#885=CARTESIAN_POINT('',(0.,0.07698,0.0196950475725787));
#886=CARTESIAN_POINT('',(0.14621,0.07698,0.0196950475725787));
#887=CARTESIAN_POINT('',(0.14621,0.000303822257441904,0.0150185302669823));
#888=CARTESIAN_POINT('',(0.14621,-0.07698,0.0103049524274213));
#889=CARTESIAN_POINT('',(0.,-0.07698,0.0103049524274213));
#890=CARTESIAN_POINT('',(-0.14621,-0.07698,0.0103049524274213));
#891=CARTESIAN_POINT('',(-0.14621,0.000303822257441918,0.0150185302669823));
#892=CARTESIAN_POINT('',(-0.14621,0.07698,0.0196950475725786));
#893=CARTESIAN_POINT('',(0.,0.07698,0.0196950475725787));
#894=CARTESIAN_POINT('',(-0.137808818853234,0.07698,0.0196950475725787));
#895=CARTESIAN_POINT('',(-0.137808818853234,-1.38777878078145E-17,0.015));
#896=CARTESIAN_POINT('',(-0.137808818853234,0.08198,0.02));
#897=CARTESIAN_POINT('',(0.,0.08198,0.02));
#898=CARTESIAN_POINT('',(-0.14396736,0.08198,0.02));
#899=CARTESIAN_POINT('',(-0.14396736,0.07473736,0.0195582678702123));
#900=CARTESIAN_POINT('',(-0.15121,0.07473736,0.0195582678702123));
#901=CARTESIAN_POINT('',(-0.15121,-1.38777878078145E-17,0.015));
#902=CARTESIAN_POINT('',(-0.15121,-0.07473736,0.0104417321297877));
#903=CARTESIAN_POINT('',(-0.14396736,-0.07473736,0.0104417321297877));
#904=CARTESIAN_POINT('',(-0.14396736,-0.08198,0.01));
#905=CARTESIAN_POINT('',(-0.151212,-0.08198,0.01));
#906=CARTESIAN_POINT('',(0.14396736,-0.08198,0.01));
#907=CARTESIAN_POINT('',(0.14396736,-0.07473736,0.0104417321297877));
#908=CARTESIAN_POINT('',(0.15121,-0.07473736,0.0104417321297877));
#909=CARTESIAN_POINT('',(0.15121,-1.38777878078145E-17,0.015));
#910=CARTESIAN_POINT('',(0.15121,0.07473736,0.0195582678702123));
#911=CARTESIAN_POINT('',(0.14396736,0.07473736,0.0195582678702123));
#912=CARTESIAN_POINT('',(0.14396736,0.08198,0.02));
#913=CARTESIAN_POINT('',(0.,0.08198,0.02));
#914=CARTESIAN_POINT('',(0.,0.07698,0.02));
#915=CARTESIAN_POINT('',(-0.126448402249927,0.07698,0.02));
#916=CARTESIAN_POINT('',(-0.126448402249927,0.07698,0.0177745396987153));
#917=CARTESIAN_POINT('',(-0.129104037168537,0.07698,0.0177745396987153));
#918=CARTESIAN_POINT('',(-0.129104037168537,0.07698,0.0151189047801048));
#919=CARTESIAN_POINT('',(0.,0.07698,0.0151189047801048));
#920=CARTESIAN_POINT('',(-0.135153183934623,0.07698,0.0151189047801049));
#921=CARTESIAN_POINT('',(-0.135153183934623,0.07698,0.0177745396987153));
#922=CARTESIAN_POINT('',(-0.137808818853234,0.07698,0.0177745396987153));
#923=CARTESIAN_POINT('',(-0.137808818853234,0.07698,0.02));
#924=CARTESIAN_POINT('',(-0.14621,0.07698,0.02));
#925=CARTESIAN_POINT('',(-0.14621,0.07698,0.013683898413266));
#926=CARTESIAN_POINT('',(0.,0.07698,0.013683898413266));
#927=CARTESIAN_POINT('',(0.14621,0.07698,0.013683898413266));
#928=CARTESIAN_POINT('',(0.14621,0.07698,0.02));
#929=CARTESIAN_POINT('',(-0.15121,0.,0.02));
#930=CARTESIAN_POINT('',(-0.15121,0.,0.));
#931=CARTESIAN_POINT('',(-0.15121,0.07473736,0.));
#932=CARTESIAN_POINT('',(-0.15121,-0.07473736,0.));
#933=CARTESIAN_POINT('',(-0.15121,-0.07473736,0.01));
#934=CARTESIAN_POINT('',(-0.15121,0.07473736,0.02));
#935=CARTESIAN_POINT('',(0.,0.,0.));
#936=CARTESIAN_POINT('',(-0.14411,-0.0236396717773729,0.));
#937=CARTESIAN_POINT('',(-0.14411,-0.0226378135841542,0.));
#938=CARTESIAN_POINT('',(0.14411,-0.0236396717773729,0.));
#939=CARTESIAN_POINT('',(0.14411,-0.0226378135841542,0.));
#940=CARTESIAN_POINT('',(0.,-0.08198,0.));
#941=CARTESIAN_POINT('',(0.14396736,-0.08198,0.));
#942=CARTESIAN_POINT('',(-0.14396736,-0.08198,0.));
#943=CARTESIAN_POINT('',(-0.14396736,-0.07473736,0.));
#944=CARTESIAN_POINT('',(-0.14396736,0.07473736,0.));
#945=CARTESIAN_POINT('',(-0.14396736,0.08198,0.));
#946=CARTESIAN_POINT('',(0.,0.08198,0.));
#947=CARTESIAN_POINT('',(0.14396736,0.08198,0.));
#948=CARTESIAN_POINT('',(0.14396736,0.07473736,0.));
#949=CARTESIAN_POINT('',(0.15121,0.07473736,0.));
#950=CARTESIAN_POINT('',(0.15121,-1.38777878078145E-17,0.));
#951=CARTESIAN_POINT('',(0.15121,-0.07473736,0.));
#952=CARTESIAN_POINT('',(0.14396736,-0.07473736,0.));
#953=CARTESIAN_POINT('',(0.,0.08198,0.02));
#954=CARTESIAN_POINT('',(-0.129104037168537,0.08198,0.0177745396987153));
#955=CARTESIAN_POINT('',(-0.126448402249927,0.08198,0.0177745396987153));
#956=CARTESIAN_POINT('',(-0.129104037168537,0.08198,0.0151189047801048));
#957=CARTESIAN_POINT('',(-0.126448402249927,0.08198,0.018894901665856));
#958=CARTESIAN_POINT('',(0.14396736,0.08198,0.));
#959=CARTESIAN_POINT('',(-0.14396736,0.08198,0.02));
#960=CARTESIAN_POINT('',(-0.137808818853234,0.08198,0.018894901665856));
#961=CARTESIAN_POINT('',(-0.137808818853234,0.08198,0.0177745396987153));
#962=CARTESIAN_POINT('',(-0.135153183934623,0.08198,0.0177745396987153));
#963=CARTESIAN_POINT('',(-0.135153183934623,0.08198,0.0151189047801049));
#964=CARTESIAN_POINT('',(-0.13212861055158,0.08198,0.0151189047801048));
#965=CARTESIAN_POINT('',(0.,-0.08198,0.02));
#966=CARTESIAN_POINT('',(-0.14396736,-0.08198,0.));
#967=CARTESIAN_POINT('',(0.14396736,-0.08198,0.02));
#968=CARTESIAN_POINT('',(0.15121,-1.38777878078145E-17,0.02));
#969=CARTESIAN_POINT('',(0.15121,0.07473736,0.02));
#970=CARTESIAN_POINT('',(0.15121,-0.07473736,0.02));
#971=CARTESIAN_POINT('',(0.,-0.07698,0.02));
#972=CARTESIAN_POINT('',(0.14621,-0.07698,0.02));
#973=CARTESIAN_POINT('',(0.14621,-0.07698,0.00429380326810863));
#974=CARTESIAN_POINT('',(0.,-0.07698,0.00429380326810863));
#975=CARTESIAN_POINT('',(-0.14621,-0.07698,0.00429380326810863));
#976=CARTESIAN_POINT('',(-0.14621,-0.07698,0.02));
#977=CARTESIAN_POINT('',(-0.14621,0.,0.02));
#978=CARTESIAN_POINT('',(-0.14621,0.000669086438922413,0.00902965874742812));
#979=CARTESIAN_POINT('',(0.14621,-1.38777878078145E-17,0.02));
#980=CARTESIAN_POINT('',(0.14621,0.000669086438922399,0.00902965874742811));
#981=CARTESIAN_POINT('',(0.,-0.00054620259084526,0.00895553767949889));
#982=CARTESIAN_POINT('',(-0.14411,-0.0240982644823364,0.0075190859905814));
#983=CARTESIAN_POINT('',(-0.14411,-0.0250964097355955,0.00745820862700132));
#984=CARTESIAN_POINT('',(0.14411,-0.0240982644823364,0.0075190859905814));
#985=CARTESIAN_POINT('',(0.14411,-0.0250964097355955,0.00745820862700132));
#986=CARTESIAN_POINT('',(0.140259009838104,-0.00054620259084523,0.00895553767949889));
#987=CARTESIAN_POINT('',(0.140259009838104,0.0720766587687177,0.0133848412510751));
#988=CARTESIAN_POINT('',(0.140259009838104,-0.0731690639504082,0.00452623410792272));
#989=CARTESIAN_POINT('',(0.,-0.0731690639504081,0.00452623410792272));
#990=CARTESIAN_POINT('',(-0.140259009838104,-0.0731690639504082,0.00452623410792272));
#991=CARTESIAN_POINT('',(-0.140259009838104,-0.000546202590845257,0.00895553767949889));
#992=CARTESIAN_POINT('',(-0.140259009838104,0.0720766587687176,0.013384841251075));
#993=CARTESIAN_POINT('',(0.,0.0720766587687176,0.013384841251075));
#994=CARTESIAN_POINT('',(0.140259009838104,-0.000363570500104982,0.00596110191972179));
#995=CARTESIAN_POINT('',(0.140259009838104,-0.000363570500104982,0.00596110191972179));
#996=CARTESIAN_POINT('',(0.140259009838104,0.0722592908594579,0.010390405491298));
#997=CARTESIAN_POINT('',(0.140259009838104,-0.0489137975758635,0.003));
#998=CARTESIAN_POINT('',(0.140259009838104,0.,0.003));
#999=CARTESIAN_POINT('',(0.140259009838104,-0.0730759781912033,0.003));
#1000=CARTESIAN_POINT('',(0.140259009838104,-0.0729864318596679,0.00153179834814562));
#1001=CARTESIAN_POINT('',(0.140259009838104,0.0722592908594579,0.010390405491298));
#1002=CARTESIAN_POINT('',(0.,-0.0729864318596678,0.00153179834814562));
#1003=CARTESIAN_POINT('',(0.,-0.0730759781912032,0.003));
#1004=CARTESIAN_POINT('',(-0.140259009838104,-0.0730759781912032,0.003));
#1005=CARTESIAN_POINT('',(-0.140259009838104,-0.0729864318596679,0.00153179834814562));
#1006=CARTESIAN_POINT('',(-0.140259009838104,-0.00036357050010501,0.00596110191972179));
#1007=CARTESIAN_POINT('',(-0.140259009838104,0.,0.003));
#1008=CARTESIAN_POINT('',(-0.140259009838104,-0.0489137975758635,0.003));
#1009=CARTESIAN_POINT('',(-0.140259009838104,-0.00036357050010501,0.00596110191972179));
#1010=CARTESIAN_POINT('',(-0.140259009838104,0.0722592908594578,0.010390405491298));
#1011=CARTESIAN_POINT('',(-0.140259009838104,0.0722592908594578,0.010390405491298));
#1012=CARTESIAN_POINT('',(0.,0.0722592908594578,0.010390405491298));
#1013=CARTESIAN_POINT('',(0.,0.0722592908594578,0.010390405491298));
#1014=CARTESIAN_POINT('',(0.,-0.000363570500105013,0.00596110191972179));
#1015=CARTESIAN_POINT('',(-0.14411,-0.0239156323915962,0.0045246502308043));
#1016=CARTESIAN_POINT('',(-0.14411,-0.0249137776448552,0.00446377286722422));
#1017=CARTESIAN_POINT('',(0.14411,-0.0239156323915962,0.0045246502308043));
#1018=CARTESIAN_POINT('',(0.14411,-0.0249137776448552,0.00446377286722422));
#1019=CARTESIAN_POINT('',(0.,-0.0489137975758635,0.003));
#1020=CARTESIAN_POINT('',(-0.14621,-0.0489137975758636,0.003));
#1021=CARTESIAN_POINT('',(-0.14621,0.00085171852966266,0.00603522298765102));
#1022=CARTESIAN_POINT('',(-0.14621,0.07698,0.0106783238336096));
#1023=CARTESIAN_POINT('',(0.,0.07698,0.0106783238336096));
#1024=CARTESIAN_POINT('',(0.14621,0.07698,0.0106783238336096));
#1025=CARTESIAN_POINT('',(0.14621,0.000851718529662647,0.00603522298765102));
#1026=CARTESIAN_POINT('',(0.14621,-0.0489137975758635,0.003));
#1027=CARTESIAN_POINT('',(0.,-0.0489137975758635,0.003));
#1028=CARTESIAN_POINT('',(0.14621,-1.38777878078145E-17,0.02));
#1029=CARTESIAN_POINT('',(0.14621,0.07698,0.02));
#1030=CARTESIAN_POINT('',(0.14621,0.07698,0.003));
#1031=CARTESIAN_POINT('',(0.14621,-1.38777878078145E-17,0.003));
#1032=CARTESIAN_POINT('',(0.,0.07698,0.02));
#1033=CARTESIAN_POINT('',(-0.14621,0.07698,0.02));
#1034=CARTESIAN_POINT('',(-0.14621,0.07698,0.003));
#1035=CARTESIAN_POINT('',(0.,0.07698,0.003));
#1036=CARTESIAN_POINT('',(-0.14621,0.,0.02));
#1037=CARTESIAN_POINT('',(-0.14621,0.,0.003));
#1038=CARTESIAN_POINT('',(0.,0.,0.003));
#1039=CARTESIAN_POINT('',(-0.14411,-0.0238226432338258,0.003));
#1040=CARTESIAN_POINT('',(-0.14411,-0.022820785040607,0.003));
#1041=CARTESIAN_POINT('',(0.14411,-0.0238226432338258,0.003));
#1042=CARTESIAN_POINT('',(0.14411,-0.022820785040607,0.003));
#1043=CARTESIAN_POINT('',(0.14411,-0.0246583362272732,0.0167020223205645));
#1044=CARTESIAN_POINT('',(-0.14411,-0.0246583362272732,0.0167020223205645));
#1045=CARTESIAN_POINT('',(0.14411,-0.0246583362272732,0.0167020223205645));
#1046=CARTESIAN_POINT('',(-0.14411,-0.0246583362272732,0.0167020223205645));
#1047=CARTESIAN_POINT('',(-0.14396736,-0.07473736,0.02));
#1048=CARTESIAN_POINT('',(-0.14396736,0.07473736,0.02));
#1049=CARTESIAN_POINT('',(0.14396736,0.07473736,0.02));
#1050=CARTESIAN_POINT('',(0.14396736,-0.07473736,0.02));
#1051=CARTESIAN_POINT('',(-0.126448402249927,0.0715082976257234,0.018894901665856));
#1052=CARTESIAN_POINT('',(-0.126448402249927,0.0715082976257234,0.0177745396987153));
#1053=CARTESIAN_POINT('',(-0.137808818853234,0.0715082976257234,0.018894901665856));
#1054=CARTESIAN_POINT('',(-0.137808818853234,0.0715082976257234,0.0177745396987153));
#1055=CARTESIAN_POINT('',(-0.135153183934623,0.0715082976257234,0.0177745396987153));
#1056=CARTESIAN_POINT('',(-0.135153183934623,0.0715082976257234,0.0151189047801049));
#1057=CARTESIAN_POINT('',(-0.13212861055158,0.0715082976257234,0.0151189047801048));
#1058=CARTESIAN_POINT('',(-0.129104037168537,0.0715082976257234,0.0151189047801048));
#1059=CARTESIAN_POINT('',(-0.129104037168537,0.0715082976257234,0.0177745396987153));
#1060=MECHANICAL_DESIGN_GEOMETRIC_PRESENTATION_REPRESENTATION('',(#641),
#1061);
#1061=(
GEOMETRIC_REPRESENTATION_CONTEXT(3)
GLOBAL_UNCERTAINTY_ASSIGNED_CONTEXT((#1062))
GLOBAL_UNIT_ASSIGNED_CONTEXT((#1065,#1064,#1063))
REPRESENTATION_CONTEXT('Part 1','TOP_LEVEL_ASSEMBLY_PART')
);
#1062=UNCERTAINTY_MEASURE_WITH_UNIT(LENGTH_MEASURE(1.E-8),#1065,
'DISTANCE_ACCURACY_VALUE','Maximum Tolerance applied to model');
#1063=(
NAMED_UNIT(*)
SI_UNIT($,.STERADIAN.)
SOLID_ANGLE_UNIT()
);
#1064=(
NAMED_UNIT(*)
PLANE_ANGLE_UNIT()
SI_UNIT($,.RADIAN.)
);
#1065=(
LENGTH_UNIT()
NAMED_UNIT(*)
SI_UNIT($,.METRE.)
);
#1066=PRODUCT_DEFINITION_SHAPE('','',#1067);
#1067=PRODUCT_DEFINITION('','',#1069,#1068);
#1068=PRODUCT_DEFINITION_CONTEXT('',#1075,'design');
#1069=PRODUCT_DEFINITION_FORMATION_WITH_SPECIFIED_SOURCE('','',#1071,
 .NOT_KNOWN.);
#1070=PRODUCT_RELATED_PRODUCT_CATEGORY('','',(#1071));
#1071=PRODUCT('Part 1','Part 1','Part 1',(#1073));
#1072=PRODUCT_CATEGORY('','');
#1073=PRODUCT_CONTEXT('',#1075,'mechanical');
#1074=APPLICATION_PROTOCOL_DEFINITION('international standard',
'ap242_managed_model_based_3d_engineering',2020,#1075);
#1075=APPLICATION_CONTEXT('managed model based 3d engineering');
ENDSEC;
END-ISO-10303-21;
